# xmcd
# Copyright (c) 1998 CDDB Inc.
#
# Track frame offsets:
#	150
#	13027
#	24466
#	35863
#	47086
#	64670
#	77908
#	88259
#	99736
#	110108
#	121801
#	134677
#	147277
#	161536
#	170884
#	186461
#	196822
#	211615
#	222624
#	235303
#	244178
#	253763
#	264036
#	274472
#
# Disc length: 3805 seconds
#
# Revision: 0
# Processed by: cddbd v1.5.1PL2 Copyright (c) Steve Scherf et al.
# Submitted via: audiograbber 1.70
#
DISCID=730edb18
DTITLE=Various Artist - Solid Gold Country Music Greats
DYEAR=1900
DGENRE=
TTITLE0=Bill Anderson - Still
TTITLE1=Kendalls - Heaven's Just A Sin Away
TTITLE2=Roger Miller - King Of The Road
TTITLE3=Conway Twitty - Hello Darlin'
TTITLE4=Deborah Allen - Baby I Lied
TTITLE5=Bobby Bare - Detroit City
TTITLE6=Dave Dudley - Six Days On The Road
TTITLE7=Sandy Posey - Single Girl
TTITLE8=Johnny Tillotson - Send Me The Pillow You Dream On
TTITLE9=Don Gibson - Oh Lonesome
TTITLE10=Lynn Anderson - Rose Garden
TTITLE11=Bill Anderson - Po' Folks
TTITLE12=Conway Twitty - You've Never Been This Far Before
TTITLE13=Roger Miller - Chug-A-Lug
TTITLE14=Holly Dunn - Daddy's Hands
TTITLE15=Faron Young - Hello Walls
TTITLE16=Don Gibson - I Can't Stop Loving You
TTITLE17=Dolly Parton - Honky Tonk Angels
TTITLE18=Bobby Bare - Four Strong Winds
TTITLE19=Sandy Posey - Born A Woman
TTITLE20=Charley Pride - Kiss An Angel Good Morning
TTITLE21=Skeeter Davis - My Last Date (With You)
TTITLE22=Ferlin Husky - The Wings Of A Dove
TTITLE23=Bill Anderson - Wild Weekend
EXTD=
EXTT0=
EXTT1=
EXTT2=
EXTT3=
EXTT4=
EXTT5=
EXTT6=
EXTT7=
EXTT8=
EXTT9=
EXTT10=
EXTT11=
EXTT12=
EXTT13=
EXTT14=
EXTT15=
EXTT16=
EXTT17=
EXTT18=
EXTT19=
EXTT20=
EXTT21=
EXTT22=
EXTT23=
PLAYORDER=
